<svg width="136" height="25" viewBox="0 0 136 25" fill="none" xmlns="http://www.w3.org/2000/svg">
<path d="M11.5 0L14.0819 8.63729H22.4371L15.6776 13.9754L18.2595 22.6127L11.5 17.2746L4.74047 22.6127L7.32238 13.9754L0.56285 8.63729H8.91809L11.5 0Z" fill="#FBAB32"/>
<path d="M39.5 0L42.0819 8.63729H50.4371L43.6776 13.9754L46.2595 22.6127L39.5 17.2746L32.7405 22.6127L35.3224 13.9754L28.5628 8.63729H36.9181L39.5 0Z" fill="#FBAB32"/>
<path d="M67.5 0L70.0819 8.63729H78.4371L71.6776 13.9754L74.2595 22.6127L67.5 17.2746L60.7405 22.6127L63.3224 13.9754L56.5628 8.63729H64.9181L67.5 0Z" fill="#FBAB32"/>
<path d="M95.5 0L98.0819 8.63729H106.437L99.6776 13.9754L102.26 22.6127L95.5 17.2746L88.7405 22.6127L91.3224 13.9754L84.5628 8.63729H92.9181L95.5 0Z" fill="#FBAB32"/>
<path d="M124.5 0L127.082 8.63729H135.437L128.678 13.9754L131.26 22.6127L124.5 17.2746L117.74 22.6127L120.322 13.9754L113.563 8.63729H121.918L124.5 0Z" fill="#FBAB32"/>
</svg>
