<svg width="17" height="25" viewBox="0 0 17 25" fill="none" xmlns="http://www.w3.org/2000/svg">
<path d="M0 0.862069C0 0.385962 0.400587 0 0.894737 0H5.36842C5.86257 0 6.26316 0.385961 6.26316 0.862069V24.1379C6.26316 24.614 5.86257 25 5.36842 25H0.894737C0.400587 25 0 24.614 0 24.1379V0.862069Z" fill="#2A2A2A"/>
<path d="M10.7368 0.862069C10.7368 0.385962 11.1374 0 11.6316 0H16.1053C16.5994 0 17 0.385961 17 0.862069V24.1379C17 24.614 16.5994 25 16.1053 25H11.6316C11.1374 25 10.7368 24.614 10.7368 24.1379V0.862069Z" fill="#2A2A2A"/>
</svg>
